<?xml version="1.0" encoding="utf-8"?>
<!-- Generator: Adobe Illustrator 21.0.2, SVG Export Plug-In . SVG Version: 6.00 Build 0)  -->
<svg version="1.1" id="Layer_1" xmlns="http://www.w3.org/2000/svg" xmlns:xlink="http://www.w3.org/1999/xlink" x="0px" y="0px"
	 viewBox="0 0 226 186" style="enable-background:new 0 0 226 186;" xml:space="preserve">
<style type="text/css">
	.st0{fill:#434041;}
	.st1{fill:#476305;}
	.st2{fill:#759F31;}
	.st3{fill-rule:evenodd;clip-rule:evenodd;fill:#A2C440;}
	.st4{fill:#FFFFFF;}
	.st5{fill:#E0353E;}
</style>
<g>
	<path class="st0" d="M26.6,156.7v-23.4h9.8c1.1,0,2,0.2,2.9,0.7c0.9,0.4,1.6,1,2.3,1.7c0.6,0.7,1.1,1.5,1.5,2.4
		c0.4,0.9,0.5,1.8,0.5,2.8c0,1-0.2,1.9-0.5,2.9c-0.3,0.9-0.8,1.7-1.4,2.4c-0.6,0.7-1.4,1.3-2.2,1.7c-0.9,0.4-1.8,0.6-2.9,0.6h-6.3
		v8.1H26.6z M30.3,145.3h6.1c0.5,0,1-0.1,1.4-0.3c0.4-0.2,0.8-0.5,1.1-0.9c0.3-0.4,0.5-0.9,0.7-1.4c0.2-0.5,0.3-1.1,0.3-1.7
		c0-0.7-0.1-1.3-0.3-1.8c-0.2-0.5-0.5-1-0.8-1.4c-0.4-0.4-0.8-0.7-1.2-0.9c-0.4-0.2-0.9-0.3-1.4-0.3h-5.9V145.3z"/>
	<path class="st0" d="M61.2,157c-0.8,0-1.6-0.1-2.3-0.4c-0.7-0.3-1.3-0.7-1.8-1.1c-0.5-0.5-0.9-1.1-1.2-1.7
		c-0.3-0.7-0.4-1.4-0.4-2.1c0-0.8,0.2-1.6,0.5-2.2c0.4-0.7,0.9-1.2,1.5-1.7c0.6-0.5,1.4-0.9,2.3-1.1c0.9-0.3,1.9-0.4,2.9-0.4
		c0.8,0,1.6,0.1,2.4,0.2c0.8,0.1,1.5,0.3,2.1,0.6v-0.6c0-1.3-0.4-2.1-1.1-2.8c-0.7-0.7-1.8-1.1-3.1-1.1c-0.9,0-1.8,0.2-2.7,0.5
		c-0.9,0.3-1.8,0.8-2.8,1.5l-1.1-2.7c2.2-1.5,4.5-2.2,6.9-2.2c2.4,0,3.9,0.6,5.3,1.8c1.3,1.2,2,3.2,2,5.4v5.6c0,1,0.3,1.2,1,1.2v3.1
		c-0.4,0-1.1,0-1.4,0c-0.3,0-1.1,0.1-1.7-0.5c-0.7-0.7-0.7-1.7-0.7-1.7C66.9,155.5,65.4,157,61.2,157z M62,153.9c2.3,0,4-1,4.5-1.6
		c0.4-0.4,0.6-1.2,0.6-1.5v-0.9c-0.6-0.2-1.3-0.4-2-0.5c-0.7-0.1-1.4-0.2-2-0.2c-1.3,0-2.3,0.2-3.2,0.6c-0.8,0.4-1.3,1.1-1.3,1.7
		c0,1,0.3,1.5,1,2C60.2,153.9,61,153.9,62,153.9z"/>
	<path class="st0" d="M53.9,154.5c-0.2-0.6-0.4-1.1-0.5-1.7c-0.3,0.1-0.6,0.2-0.7,0.2c-0.3,0.1-0.6,0.1-0.8,0.1
		c-0.6,0-1.7-0.2-1.7-1.6v-18.9h-3.6v20.4c0,1.3,0.3,2.2,1,2.9c0.7,0.7,1.7,1,2.9,1c0.6,0,1.2-0.1,1.9-0.2c0.4-0.1,1.4-0.4,2.4-0.7
		C54.5,155.6,54.1,155.1,53.9,154.5z"/>
	<path class="st0" d="M88.9,156.7h-3.6v-9.7c0-1.6-0.3-2.8-0.8-3.5c-0.5-0.7-1.3-1.1-2.3-1.1c-0.5,0-1.1,0.1-1.6,0.3
		c-0.5,0.2-1,0.5-1.5,0.8c-0.5,0.4-0.9,0.8-1.2,1.3c-0.4,0.5-0.8,1.5-0.8,2.4c0,2.6,0,9.5,0,9.5h-3.6v-17.2h3.3v2.4
		c0.4-0.5,1.1-1.4,2.4-1.9c1.6-0.7,2.8-0.8,4.3-0.8c2.8,0,4,1.8,4.4,2.5c0.4,0.6,0.6,1.4,0.8,2.2c0.2,0.8,0.2,1.7,0.2,2.7V156.7z"/>
	<path class="st0" d="M101.4,144.8c0-1.4,0.3-2.8,0.8-4.2c0.5-1.4,1.3-2.6,2.3-3.7c1-1.1,2.2-2,3.6-2.7c1.4-0.7,3.1-1,4.9-1
		c2.2,0,4,0.5,5.6,1.4c1.6,0.9,2.7,2.2,3.5,3.7l-3.5,2.4c-0.3-0.7-0.7-1.2-1.1-1.7c-0.4-0.4-0.9-0.8-1.4-1.1c-0.5-0.3-1-0.5-1.6-0.6
		c-0.5-0.1-1.1-0.2-1.6-0.2c-1.1,0-2.1,0.2-3,0.7c-0.9,0.5-1.5,1.1-2.1,1.8c-0.6,0.7-1,1.6-1.3,2.5c-0.3,0.9-0.4,1.9-0.4,2.8
		c0,1,0.2,2,0.5,3c0.3,1,0.8,1.8,1.4,2.5c0.6,0.7,1.3,1.3,2.2,1.7c0.8,0.4,1.8,0.7,2.8,0.7c0.5,0,1.1-0.1,1.6-0.2
		c0.6-0.1,1.1-0.3,1.6-0.6c0.5-0.3,1-0.7,1.4-1.1c0.4-0.4,0.8-1,1.1-1.6l3.7,2.1c-0.4,0.9-0.9,1.7-1.6,2.3c-0.7,0.7-1.5,1.2-2.3,1.7
		c-0.9,0.5-1.8,0.8-2.8,1.1c-1,0.2-2,0.4-2.9,0.4c-1.7,0-3.2-0.3-4.6-1.1c-1.4-0.7-2.6-1.6-3.6-2.8c-1-1.1-1.8-2.4-2.3-3.9
		C101.7,147.8,101.4,146.3,101.4,144.8z"/>
	<path class="st0" d="M133,157c-1.4,0-2.6-0.2-3.8-0.7c-1.1-0.5-2.1-1.1-2.9-1.9c-0.8-0.8-1.4-1.8-1.8-2.8c-0.4-1.1-0.6-2.2-0.6-3.4
		c0-1.2,0.2-2.4,0.6-3.5c0.4-1.1,1-2,1.8-2.9c0.8-0.8,1.8-1.5,2.9-2c1.1-0.5,2.4-0.7,3.8-0.7c1.4,0,2.7,0.2,3.8,0.7
		c1.1,0.5,2.1,1.1,2.8,1.9c0.8,0.8,1.4,1.8,1.8,2.8c0.4,1.1,0.6,2.2,0.6,3.4c0,0.3,0,0.6,0,0.8c0,0.3,0,0.5-0.1,0.7h-13.6
		c0.1,1.4,1.1,2.6,1.5,2.9c0.4,0.4,0.9,0.7,1.4,0.9c0.5,0.2,1.4,0.3,1.9,0.3c0.9,0,1.7-0.2,2.5-0.6c0.8-0.4,1.3-0.8,1.6-1.5l3.8,1.1
		c-0.6,1.3-1.7,2.4-3.1,3.3C136.6,156.6,135,157,133,157z M137.7,146.6c-0.1-1.2-0.6-2.2-1.5-2.9c-0.9-0.7-2-1.1-3.2-1.1
		c-0.6,0-1.2,0.1-1.8,0.3c-0.5,0.2-1,0.5-1.4,0.8c-0.4,0.4-0.8,0.8-1,1.3c-0.3,0.5-0.4,1-0.5,1.6H137.7z"/>
	<path class="st0" d="M144.8,137v-4.4h4.4v4.4H144.8z M144.8,156.7v-17.3h4.4v17.3H144.8z"/>
	<path class="st0" d="M198.6,152.4l-0.3,0.1c-0.3,0.1-0.6,0.2-0.9,0.3c-0.3,0.1-0.6,0.1-0.8,0.1c-0.4,0-1.5-0.1-1.5-1.4v-19.1h-4.1
		V153c0,1.3,0.4,2.3,1.1,3.1c0.7,0.7,1.8,1.1,3.1,1.1c0.6,0,1.3-0.1,2-0.2c0.7-0.1,1.4-0.3,1.9-0.6l0.2-0.1L198.6,152.4z"/>
	<path class="st0" d="M189.9,156.5c-0.6-0.8-0.9-1.8-1-2.9l0-0.2l-0.2,0c-0.4,0-0.6-0.1-0.6-0.9v-5.6c0-2.3-0.7-4.1-2.1-5.4
		c-1.4-1.3-3.1-1.9-5.4-1.9c-2.4,0-4.8,0.8-7.1,2.3l-0.2,0.1l1.3,2.9l0.2-0.2c0.9-0.6,1.8-1.1,2.7-1.4c0.9-0.3,1.7-0.5,2.6-0.5
		c1.3,0,2.3,0.3,3,1c0.7,0.7,1,1.5,1,2.7v0.2c-0.6-0.2-1.2-0.4-1.9-0.5c-1.9-0.3-3.9-0.3-5.5,0.2c-0.9,0.3-1.7,0.7-2.4,1.2
		c-0.7,0.5-1.2,1.1-1.6,1.8c-0.4,0.7-0.6,1.5-0.6,2.3c0,0.8,0.2,1.5,0.5,2.2c0.3,0.7,0.7,1.3,1.3,1.8c0.5,0.5,1.2,0.9,1.9,1.2
		c0.7,0.3,1.6,0.4,2.4,0.4c3.7,0,5.4-1.1,6.3-2.1c0.1,0.5,0.3,1.1,0.8,1.5c0.4,0.4,1.1,0.5,2,0.5c1.1,0,2.1-0.3,2.2-0.3l0.3-0.1
		L189.9,156.5z M179.4,153.6c-1,0-1.7-0.1-2.3-0.4c-0.5-0.4-0.9-0.8-0.9-1.8c0-0.6,0.5-1.2,1.2-1.5c0.8-0.4,1.8-0.6,3.1-0.6
		c0.5,0,1,0.1,1.6,0.2l0.4,0.1c0.6,0.1,1.1,0.2,1.7,0.4l0.1,0v0.8c0,0.3-0.2,1-0.6,1.4C183.2,152.6,181.5,153.6,179.4,153.6z"/>
	<g>
		<path class="st0" d="M170.8,148.1c0,5.1-3.2,8.8-8.1,8.8c-2.7,0-4.6-0.6-6.1-2.6v2.4h-4.4v-23.9h4.4v9.1c1.2-1.7,3.3-2.5,6-2.5
			C167.4,139.3,170.8,142.8,170.8,148.1z M166.9,148c0-3-1.9-5.3-5-5.3c-3.1,0-5.5,2.2-5.5,5.3c0,3.1,2.4,5.5,5.5,5.5
			C165.1,153.5,166.9,151.1,166.9,148z"/>
	</g>
	<g>
		<path class="st1" d="M105.3,56.3c7.1-4.1,11.5-11.3,15.1-16.7c7.9,7.4,12.3,17.7,12.1,29.5c0,1.7-0.3,4.1-0.4,4.8
			c0,0.1-0.3-0.2-0.8-0.5c-0.7-0.4-1.4-0.9-2-1.5c-11.1-9.3-9.7-29.1-19-18c-8.1,9.7-8,23.6-0.4,33.1c-6.2,1.1-12.6,0.3-18.3-2.1
			c2-4.9,3.6-10.2,3.6-15.9c0-3.1-0.5-6.2-1.3-9.1C97.8,59.5,101.7,58.4,105.3,56.3z"/>
		<path class="st2" d="M91.6,85.1c-6.4-2.7-12.1-7.4-15.9-13.9c-7-12.2,5-8.9,18.2-11c0.8,2.9,1.3,6,1.3,9.1
			C95.2,74.8,93.6,80.2,91.6,85.1z"/>
		<path class="st2" d="M120.4,39.7c4.4-6.6,7.5-10.2,12.5-1.5c6,10.4,4.6,26-0.7,35.8c0-0.5,0.3-1.9,0.4-4.8
			C132.7,58.1,128.4,47,120.4,39.7z"/>
		<path class="st1" d="M132.1,74c11.1,6.1,25.9,3.3,17.5,13.2c-6.9,8.2-16.9,11.5-26.5,8.7C128.3,90.1,131.1,82.2,132.1,74z"/>
		<path class="st3" d="M93.9,60.1c-4.7-18-20.4-31.3-1.1-31.3c10.7,0,20.4,4.1,27.6,10.9c-3.6,5.3-8,12.6-15.1,16.7
			C101.7,58.4,97.8,59.5,93.9,60.1z"/>
		<path class="st3" d="M109.9,87.2c1.1,1.3,2.3,2.6,3.6,3.7c2.9,2.4,6.1,4.1,9.5,5.1c-7.4,8.4-18.3,13.7-30.3,13.7
			c-16.7,0-7.1-10.1-1.2-24.6C97.3,87.5,103.7,88.2,109.9,87.2z"/>
		<path class="st4" d="M121.2,83.5c-3.6,1.8-7.6,3.1-11.3,3.7c1.1,1.3,2.3,2.6,3.6,3.7c0.3,0.3,0.7,0.6,1.1,0.9c0,0,0,0,0.1,0
			c2.6,1.9,5.5,3.3,8.4,4.2c5.2-5.9,8-13.8,9-22C132.1,74,127.8,80.1,121.2,83.5z"/>
		<path class="st5" d="M132.1,74c-0.7-0.4-2.1-1.4-2.8-2c-11.1-9.3-9.7-29.1-19-18c-8.1,9.7-8,23.6-0.4,33.1
			c3.7-0.6,7.7-1.9,11.3-3.7C127.8,80.1,132.1,74,132.1,74z"/>
	</g>
</g>
</svg>
